<svg xmlns="http://www.w3.org/2000/svg" xmlns:xlink="http://www.w3.org/1999/xlink" width="383" zoomAndPan="magnify" viewBox="0 0 287.25 62.999997" height="84" preserveAspectRatio="xMidYMid meet" version="1.0"><defs><filter x="0%" y="0%" width="100%" height="100%" id="90f5507132"><feColorMatrix values="0 0 0 0 1 0 0 0 0 1 0 0 0 0 1 0 0 0 1 0" color-interpolation-filters="sRGB"/></filter><g/><mask id="770e26c7a4"><g filter="url(#90f5507132)"><rect x="-28.725" width="344.7" fill="#000000" y="-6.3" height="75.599996" fill-opacity="0.5"/></g></mask><clipPath id="c62e1015ff"><rect x="0" width="274" y="0" height="51"/></clipPath><clipPath id="68315ce214"><path d="M 240 0.0820312 L 280 0.0820312 L 280 33 L 240 33 Z M 240 0.0820312 " clip-rule="nonzero"/></clipPath><mask id="7f045ec32e"><g filter="url(#90f5507132)"><rect x="-28.725" width="344.7" fill="#000000" y="-6.3" height="75.599996" fill-opacity="0.5"/></g></mask><clipPath id="644345d237"><path d="M 10.046875 3.164062 L 31.742188 3.164062 L 31.742188 23.359375 L 10.046875 23.359375 Z M 10.046875 3.164062 " clip-rule="nonzero"/></clipPath><clipPath id="4e48883615"><path d="M 18.273438 3.164062 L 23.445312 3.164062 C 27.988281 3.164062 31.671875 6.84375 31.671875 11.386719 L 31.671875 15.273438 C 31.671875 19.816406 27.988281 23.5 23.445312 23.5 L 18.273438 23.5 C 13.730469 23.5 10.046875 19.816406 10.046875 15.273438 L 10.046875 11.386719 C 10.046875 6.84375 13.730469 3.164062 18.273438 3.164062 Z M 18.273438 3.164062 " clip-rule="nonzero"/></clipPath><clipPath id="417df750b1"><rect x="0" width="40" y="0" height="33"/></clipPath></defs><g mask="url(#770e26c7a4)"><g transform="matrix(1, 0, 0, 1, 8, 9)"><g clip-path="url(#c62e1015ff)"><g fill="#000000" fill-opacity="1"><g transform="translate(0.837337, 35.864241)"><g><path d="M 23.765625 -18.171875 C 25.703125 -16.054688 26.671875 -13.460938 26.671875 -10.390625 C 26.671875 -7.316406 25.703125 -4.710938 23.765625 -2.578125 C 21.828125 -0.453125 19.363281 0.609375 16.375 0.609375 C 13.625 0.609375 11.359375 -0.253906 9.578125 -1.984375 L 9.578125 10.515625 L 2.421875 10.515625 L 2.421875 -20.734375 L 9.5 -20.734375 L 9.5 -18.390625 L 9.578125 -18.390625 C 11.359375 -20.359375 13.625 -21.34375 16.375 -21.34375 C 19.363281 -21.34375 21.828125 -20.285156 23.765625 -18.171875 Z M 17.6875 -6.875 C 18.613281 -7.789062 19.078125 -8.960938 19.078125 -10.390625 C 19.078125 -11.816406 18.628906 -12.976562 17.734375 -13.875 C 16.847656 -14.78125 15.679688 -15.234375 14.234375 -15.234375 C 12.828125 -15.234375 11.671875 -14.773438 10.765625 -13.859375 C 9.867188 -12.941406 9.421875 -11.785156 9.421875 -10.390625 C 9.421875 -8.960938 9.882812 -7.789062 10.8125 -6.875 C 11.738281 -5.957031 12.878906 -5.5 14.234375 -5.5 C 15.609375 -5.5 16.757812 -5.957031 17.6875 -6.875 Z M 17.6875 -6.875 "/></g></g></g><g fill="#000000" fill-opacity="1"><g transform="translate(24.633509, 35.864241)"><g><path d="M 2.421875 0 L 2.421875 -20.734375 L 9.578125 -20.734375 L 9.578125 -17.75 L 9.65625 -17.75 C 9.707031 -17.851562 9.796875 -17.984375 9.921875 -18.140625 C 10.046875 -18.304688 10.304688 -18.59375 10.703125 -19 C 11.109375 -19.40625 11.539062 -19.769531 12 -20.09375 C 12.457031 -20.414062 13.050781 -20.703125 13.78125 -20.953125 C 14.507812 -21.210938 15.25 -21.34375 16 -21.34375 C 16.78125 -21.34375 17.546875 -21.234375 18.296875 -21.015625 C 19.054688 -20.804688 19.613281 -20.59375 19.96875 -20.375 L 20.53125 -20.046875 L 17.546875 -13.984375 C 16.648438 -14.742188 15.410156 -15.125 13.828125 -15.125 C 12.960938 -15.125 12.21875 -14.929688 11.59375 -14.546875 C 10.976562 -14.171875 10.539062 -13.710938 10.28125 -13.171875 C 10.03125 -12.640625 9.847656 -12.179688 9.734375 -11.796875 C 9.628906 -11.421875 9.578125 -11.125 9.578125 -10.90625 L 9.578125 0 Z M 2.421875 0 "/></g></g></g><g fill="#000000" fill-opacity="1"><g transform="translate(40.955037, 35.864241)"><g><path d="M 4.390625 -2.453125 C 2.085938 -4.503906 0.9375 -7.132812 0.9375 -10.34375 C 0.9375 -13.550781 2.132812 -16.1875 4.53125 -18.25 C 6.925781 -20.3125 9.890625 -21.34375 13.421875 -21.34375 C 16.898438 -21.34375 19.832031 -20.304688 22.21875 -18.234375 C 24.601562 -16.160156 25.796875 -13.53125 25.796875 -10.34375 C 25.796875 -7.164062 24.628906 -4.546875 22.296875 -2.484375 C 19.960938 -0.421875 17.003906 0.609375 13.421875 0.609375 C 9.703125 0.609375 6.691406 -0.410156 4.390625 -2.453125 Z M 9.921875 -13.859375 C 8.992188 -12.941406 8.53125 -11.769531 8.53125 -10.34375 C 8.53125 -8.914062 8.972656 -7.75 9.859375 -6.84375 C 10.753906 -5.945312 11.925781 -5.5 13.375 -5.5 C 14.78125 -5.5 15.929688 -5.957031 16.828125 -6.875 C 17.734375 -7.789062 18.1875 -8.945312 18.1875 -10.34375 C 18.1875 -11.769531 17.722656 -12.941406 16.796875 -13.859375 C 15.867188 -14.773438 14.726562 -15.234375 13.375 -15.234375 C 12 -15.234375 10.847656 -14.773438 9.921875 -13.859375 Z M 9.921875 -13.859375 "/></g></g></g><g fill="#000000" fill-opacity="1"><g transform="translate(63.862337, 35.864241)"><g><path d="M 3.84375 -2.5625 C 1.90625 -4.675781 0.9375 -7.269531 0.9375 -10.34375 C 0.9375 -13.414062 1.90625 -16.015625 3.84375 -18.140625 C 5.78125 -20.273438 8.242188 -21.34375 11.234375 -21.34375 C 13.984375 -21.34375 16.25 -20.476562 18.03125 -18.75 L 18.03125 -34.765625 L 25.1875 -34.765625 L 25.1875 0 L 18.109375 0 L 18.109375 -2.34375 L 18.03125 -2.34375 C 16.25 -0.375 13.984375 0.609375 11.234375 0.609375 C 8.242188 0.609375 5.78125 -0.445312 3.84375 -2.5625 Z M 9.921875 -13.859375 C 8.992188 -12.941406 8.53125 -11.769531 8.53125 -10.34375 C 8.53125 -8.914062 8.972656 -7.75 9.859375 -6.84375 C 10.753906 -5.945312 11.925781 -5.5 13.375 -5.5 C 14.78125 -5.5 15.929688 -5.957031 16.828125 -6.875 C 17.734375 -7.789062 18.1875 -8.945312 18.1875 -10.34375 C 18.1875 -11.769531 17.722656 -12.941406 16.796875 -13.859375 C 15.867188 -14.773438 14.726562 -15.234375 13.375 -15.234375 C 12 -15.234375 10.847656 -14.773438 9.921875 -13.859375 Z M 9.921875 -13.859375 "/></g></g></g><g fill="#000000" fill-opacity="1"><g transform="translate(87.658507, 35.864241)"><g><path d="M 23.40625 -9.375 L 8.375 -9.375 C 8.375 -7.914062 8.84375 -6.835938 9.78125 -6.140625 C 10.726562 -5.441406 11.753906 -5.09375 12.859375 -5.09375 C 14.015625 -5.09375 14.925781 -5.242188 15.59375 -5.546875 C 16.269531 -5.859375 17.039062 -6.472656 17.90625 -7.390625 L 23.078125 -4.8125 C 20.921875 -1.195312 17.335938 0.609375 12.328125 0.609375 C 9.203125 0.609375 6.519531 -0.460938 4.28125 -2.609375 C 2.050781 -4.753906 0.9375 -7.332031 0.9375 -10.34375 C 0.9375 -13.363281 2.050781 -15.953125 4.28125 -18.109375 C 6.519531 -20.265625 9.203125 -21.34375 12.328125 -21.34375 C 15.617188 -21.34375 18.289062 -20.390625 20.34375 -18.484375 C 22.40625 -16.585938 23.4375 -13.875 23.4375 -10.34375 C 23.4375 -9.863281 23.425781 -9.539062 23.40625 -9.375 Z M 8.5625 -13.34375 L 16.453125 -13.34375 C 16.285156 -14.414062 15.859375 -15.238281 15.171875 -15.8125 C 14.484375 -16.394531 13.601562 -16.6875 12.53125 -16.6875 C 11.34375 -16.6875 10.398438 -16.375 9.703125 -15.75 C 9.003906 -15.132812 8.625 -14.332031 8.5625 -13.34375 Z M 8.5625 -13.34375 "/></g></g></g><g fill="#000000" fill-opacity="1"><g transform="translate(108.222411, 35.864241)"><g><path d="M 7.6875 -20.734375 L 12.734375 -9.453125 L 17.78125 -20.734375 L 26.28125 -20.734375 L 15.15625 0 L 10.3125 0 L -0.8125 -20.734375 Z M 7.6875 -20.734375 "/></g></g></g><g fill="#000000" fill-opacity="1"><g transform="translate(129.877196, 35.864241)"><g><path d="M 4.390625 -2.453125 C 2.085938 -4.503906 0.9375 -7.132812 0.9375 -10.34375 C 0.9375 -13.550781 2.132812 -16.1875 4.53125 -18.25 C 6.925781 -20.3125 9.890625 -21.34375 13.421875 -21.34375 C 16.898438 -21.34375 19.832031 -20.304688 22.21875 -18.234375 C 24.601562 -16.160156 25.796875 -13.53125 25.796875 -10.34375 C 25.796875 -7.164062 24.628906 -4.546875 22.296875 -2.484375 C 19.960938 -0.421875 17.003906 0.609375 13.421875 0.609375 C 9.703125 0.609375 6.691406 -0.410156 4.390625 -2.453125 Z M 9.921875 -13.859375 C 8.992188 -12.941406 8.53125 -11.769531 8.53125 -10.34375 C 8.53125 -8.914062 8.972656 -7.75 9.859375 -6.84375 C 10.753906 -5.945312 11.925781 -5.5 13.375 -5.5 C 14.78125 -5.5 15.929688 -5.957031 16.828125 -6.875 C 17.734375 -7.789062 18.1875 -8.945312 18.1875 -10.34375 C 18.1875 -11.769531 17.722656 -12.941406 16.796875 -13.859375 C 15.867188 -14.773438 14.726562 -15.234375 13.375 -15.234375 C 12 -15.234375 10.847656 -14.773438 9.921875 -13.859375 Z M 9.921875 -13.859375 "/></g></g></g><g fill="#000000" fill-opacity="1"><g transform="translate(152.784492, 35.864241)"><g><path d="M 23.765625 -18.171875 C 25.703125 -16.054688 26.671875 -13.460938 26.671875 -10.390625 C 26.671875 -7.316406 25.703125 -4.710938 23.765625 -2.578125 C 21.828125 -0.453125 19.363281 0.609375 16.375 0.609375 C 13.625 0.609375 11.359375 -0.253906 9.578125 -1.984375 L 9.578125 10.515625 L 2.421875 10.515625 L 2.421875 -20.734375 L 9.5 -20.734375 L 9.5 -18.390625 L 9.578125 -18.390625 C 11.359375 -20.359375 13.625 -21.34375 16.375 -21.34375 C 19.363281 -21.34375 21.828125 -20.285156 23.765625 -18.171875 Z M 17.6875 -6.875 C 18.613281 -7.789062 19.078125 -8.960938 19.078125 -10.390625 C 19.078125 -11.816406 18.628906 -12.976562 17.734375 -13.875 C 16.847656 -14.78125 15.679688 -15.234375 14.234375 -15.234375 C 12.828125 -15.234375 11.671875 -14.773438 10.765625 -13.859375 C 9.867188 -12.941406 9.421875 -11.785156 9.421875 -10.390625 C 9.421875 -8.960938 9.882812 -7.789062 10.8125 -6.875 C 11.738281 -5.957031 12.878906 -5.5 14.234375 -5.5 C 15.609375 -5.5 16.757812 -5.957031 17.6875 -6.875 Z M 17.6875 -6.875 "/></g></g></g><g fill="#000000" fill-opacity="1"><g transform="translate(176.580663, 35.864241)"><g><path d="M 11.4375 -21.34375 C 12.625 -21.34375 13.796875 -21.207031 14.953125 -20.9375 C 16.109375 -20.664062 16.972656 -20.394531 17.546875 -20.125 L 18.390625 -19.71875 L 16.046875 -15.03125 C 14.429688 -15.894531 12.894531 -16.328125 11.4375 -16.328125 C 10.632812 -16.328125 10.0625 -16.238281 9.71875 -16.0625 C 9.382812 -15.894531 9.21875 -15.566406 9.21875 -15.078125 C 9.21875 -14.972656 9.226562 -14.863281 9.25 -14.75 C 9.28125 -14.644531 9.335938 -14.546875 9.421875 -14.453125 C 9.503906 -14.359375 9.578125 -14.273438 9.640625 -14.203125 C 9.703125 -14.140625 9.816406 -14.066406 9.984375 -13.984375 C 10.148438 -13.898438 10.28125 -13.835938 10.375 -13.796875 C 10.46875 -13.765625 10.617188 -13.707031 10.828125 -13.625 C 11.046875 -13.539062 11.207031 -13.476562 11.3125 -13.4375 C 11.425781 -13.394531 11.609375 -13.332031 11.859375 -13.25 C 12.117188 -13.175781 12.316406 -13.125 12.453125 -13.09375 C 13.285156 -12.851562 14.007812 -12.582031 14.625 -12.28125 C 15.25 -11.988281 15.90625 -11.585938 16.59375 -11.078125 C 17.28125 -10.566406 17.8125 -9.921875 18.1875 -9.140625 C 18.5625 -8.359375 18.75 -7.46875 18.75 -6.46875 C 18.75 -1.75 15.476562 0.609375 8.9375 0.609375 C 7.445312 0.609375 6.035156 0.378906 4.703125 -0.078125 C 3.367188 -0.535156 2.40625 -0.992188 1.8125 -1.453125 L 0.9375 -2.1875 L 3.84375 -7.078125 C 4.050781 -6.890625 4.332031 -6.664062 4.6875 -6.40625 C 5.039062 -6.144531 5.675781 -5.789062 6.59375 -5.34375 C 7.507812 -4.90625 8.300781 -4.6875 8.96875 -4.6875 C 10.457031 -4.6875 11.203125 -5.1875 11.203125 -6.1875 C 11.203125 -6.644531 11.007812 -7 10.625 -7.25 C 10.25 -7.507812 9.609375 -7.800781 8.703125 -8.125 C 7.804688 -8.445312 7.101562 -8.742188 6.59375 -9.015625 C 5.300781 -9.691406 4.273438 -10.453125 3.515625 -11.296875 C 2.765625 -12.148438 2.390625 -13.273438 2.390625 -14.671875 C 2.390625 -16.773438 3.203125 -18.410156 4.828125 -19.578125 C 6.460938 -20.753906 8.664062 -21.34375 11.4375 -21.34375 Z M 11.4375 -21.34375 "/></g></g></g><g fill="#000000" fill-opacity="1"><g transform="translate(192.659765, 35.864241)"><g><path d="M 1.5 5.09375 L 7.359375 2.21875 C 8.429688 4 10.300781 4.890625 12.96875 4.890625 C 14.207031 4.890625 15.359375 4.488281 16.421875 3.6875 C 17.492188 2.894531 18.03125 1.679688 18.03125 0.046875 L 18.03125 -1.5 C 16.757812 -0.09375 14.492188 0.609375 11.234375 0.609375 C 8.242188 0.609375 5.78125 -0.445312 3.84375 -2.5625 C 1.90625 -4.675781 0.9375 -7.269531 0.9375 -10.34375 C 0.9375 -13.414062 1.90625 -16.015625 3.84375 -18.140625 C 5.78125 -20.273438 8.242188 -21.34375 11.234375 -21.34375 C 13.898438 -21.34375 16.125 -20.519531 17.90625 -18.875 L 18.03125 -18.875 L 18.03125 -20.734375 L 25.1875 -20.734375 L 25.1875 0.5625 C 25.1875 3.9375 24.066406 6.535156 21.828125 8.359375 C 19.585938 10.191406 16.632812 11.109375 12.96875 11.109375 C 7.039062 11.109375 3.21875 9.101562 1.5 5.09375 Z M 9.921875 -13.859375 C 8.992188 -12.941406 8.53125 -11.769531 8.53125 -10.34375 C 8.53125 -8.914062 8.972656 -7.75 9.859375 -6.84375 C 10.753906 -5.945312 11.925781 -5.5 13.375 -5.5 C 14.78125 -5.5 15.929688 -5.957031 16.828125 -6.875 C 17.734375 -7.789062 18.1875 -8.945312 18.1875 -10.34375 C 18.1875 -11.769531 17.722656 -12.941406 16.796875 -13.859375 C 15.867188 -14.773438 14.726562 -15.234375 13.375 -15.234375 C 12 -15.234375 10.847656 -14.773438 9.921875 -13.859375 Z M 9.921875 -13.859375 "/></g></g></g><g fill="#000000" fill-opacity="1"><g transform="translate(216.455947, 35.864241)"><g><path d="M 9.171875 -20.734375 L 9.171875 -10.875 C 9.171875 -8.820312 9.476562 -7.363281 10.09375 -6.5 C 10.71875 -5.644531 11.769531 -5.21875 13.25 -5.21875 C 14.738281 -5.21875 15.789062 -5.644531 16.40625 -6.5 C 17.03125 -7.363281 17.34375 -8.820312 17.34375 -10.875 L 17.34375 -20.734375 L 24.5 -20.734375 L 24.5 -9.140625 C 24.5 -5.691406 23.601562 -3.203125 21.8125 -1.671875 C 20.019531 -0.148438 17.164062 0.609375 13.25 0.609375 C 9.34375 0.609375 6.492188 -0.148438 4.703125 -1.671875 C 2.910156 -3.203125 2.015625 -5.691406 2.015625 -9.140625 L 2.015625 -20.734375 Z M 9.171875 -20.734375 "/></g></g></g><g fill="#000000" fill-opacity="1"><g transform="translate(239.161242, 35.864241)"><g><path d="M 18.15625 -20.734375 L 26.390625 -20.734375 L 10.109375 10.515625 L 1.859375 10.515625 L 9.015625 -3.234375 L -0.8125 -20.734375 L 7.4375 -20.734375 L 13.21875 -10.109375 Z M 18.15625 -20.734375 "/></g></g></g><g fill="#000000" fill-opacity="1"><g transform="translate(260.937251, 35.864241)"><g><path d="M 7.03125 -8.65625 C 8.320312 -8.65625 9.421875 -8.203125 10.328125 -7.296875 C 11.234375 -6.390625 11.6875 -5.289062 11.6875 -4 C 11.6875 -2.738281 11.234375 -1.65625 10.328125 -0.75 C 9.421875 0.15625 8.320312 0.609375 7.03125 0.609375 C 5.769531 0.609375 4.6875 0.15625 3.78125 -0.75 C 2.875 -1.65625 2.421875 -2.738281 2.421875 -4 C 2.421875 -5.289062 2.875 -6.390625 3.78125 -7.296875 C 4.6875 -8.203125 5.769531 -8.65625 7.03125 -8.65625 Z M 7.03125 -8.65625 "/></g></g></g></g></g></g><g clip-path="url(#68315ce214)"><g mask="url(#7f045ec32e)"><g transform="matrix(1, 0, 0, 1, 240, 0.000000000000002318)"><g clip-path="url(#417df750b1)"><g clip-path="url(#644345d237)"><g clip-path="url(#4e48883615)"><path stroke-linecap="butt" transform="matrix(0.748047, 0, 0, 0.748047, 10.047427, 3.162864)" fill="none" stroke-linejoin="miter" d="M 10.996651 0.00160238 L 17.910489 0.00160238 C 23.983596 0.00160238 28.907878 4.920662 28.907878 10.993769 L 28.907878 16.189592 C 28.907878 22.262698 23.983596 27.18698 17.910489 27.18698 L 10.996651 27.18698 C 4.923544 27.18698 -0.000737934 22.262698 -0.000737934 16.189592 L -0.000737934 10.993769 C -0.000737934 4.920662 4.923544 0.00160238 10.996651 0.00160238 Z M 10.996651 0.00160238 " stroke="#000000" stroke-width="4" stroke-opacity="1" stroke-miterlimit="4"/></g></g><g fill="#000000" fill-opacity="1"><g transform="translate(14.718191, 11.358796)"><g><path d="M 1.40625 0.046875 C 1.257812 0.046875 1.117188 0.03125 0.984375 0 C 0.847656 -0.0390625 0.722656 -0.0976562 0.609375 -0.171875 C 0.492188 -0.242188 0.398438 -0.332031 0.328125 -0.4375 C 0.253906 -0.550781 0.210938 -0.679688 0.203125 -0.828125 L 0.796875 -0.828125 C 0.816406 -0.734375 0.851562 -0.65625 0.90625 -0.59375 C 0.957031 -0.539062 1.023438 -0.5 1.109375 -0.46875 C 1.203125 -0.4375 1.300781 -0.421875 1.40625 -0.421875 C 1.507812 -0.421875 1.601562 -0.429688 1.6875 -0.453125 C 1.78125 -0.484375 1.851562 -0.523438 1.90625 -0.578125 C 1.957031 -0.628906 1.984375 -0.695312 1.984375 -0.78125 C 1.984375 -0.851562 1.960938 -0.910156 1.921875 -0.953125 C 1.878906 -1.003906 1.820312 -1.039062 1.75 -1.0625 C 1.675781 -1.09375 1.59375 -1.117188 1.5 -1.140625 L 1 -1.25 C 0.78125 -1.289062 0.601562 -1.375 0.46875 -1.5 C 0.34375 -1.632812 0.28125 -1.8125 0.28125 -2.03125 C 0.28125 -2.21875 0.328125 -2.375 0.421875 -2.5 C 0.523438 -2.632812 0.660156 -2.738281 0.828125 -2.8125 C 0.992188 -2.882812 1.179688 -2.921875 1.390625 -2.921875 C 1.640625 -2.921875 1.847656 -2.878906 2.015625 -2.796875 C 2.179688 -2.722656 2.304688 -2.617188 2.390625 -2.484375 C 2.484375 -2.347656 2.535156 -2.203125 2.546875 -2.046875 L 1.953125 -2.046875 C 1.941406 -2.148438 1.910156 -2.226562 1.859375 -2.28125 C 1.804688 -2.34375 1.738281 -2.382812 1.65625 -2.40625 C 1.582031 -2.4375 1.5 -2.453125 1.40625 -2.453125 C 1.320312 -2.453125 1.25 -2.441406 1.1875 -2.421875 C 1.125 -2.410156 1.070312 -2.390625 1.03125 -2.359375 C 0.988281 -2.328125 0.953125 -2.289062 0.921875 -2.25 C 0.898438 -2.207031 0.890625 -2.160156 0.890625 -2.109375 C 0.890625 -2.015625 0.914062 -1.941406 0.96875 -1.890625 C 1.03125 -1.847656 1.132812 -1.804688 1.28125 -1.765625 L 1.78125 -1.671875 C 1.957031 -1.640625 2.097656 -1.585938 2.203125 -1.515625 C 2.304688 -1.453125 2.382812 -1.375 2.4375 -1.28125 C 2.488281 -1.195312 2.519531 -1.109375 2.53125 -1.015625 C 2.550781 -0.929688 2.5625 -0.851562 2.5625 -0.78125 C 2.5625 -0.625 2.515625 -0.484375 2.421875 -0.359375 C 2.328125 -0.234375 2.191406 -0.132812 2.015625 -0.0625 C 1.835938 0.0078125 1.632812 0.046875 1.40625 0.046875 Z M 1.40625 0.046875 "/></g></g></g><g fill="#000000" fill-opacity="1"><g transform="translate(17.426443, 11.358796)"><g><path d="M 0.328125 -2.875 L 0.90625 -2.875 L 0.90625 0 L 0.328125 0 Z M 0.328125 -2.875 "/></g></g></g><g fill="#000000" fill-opacity="1"><g transform="translate(18.596198, 11.358796)"><g><path d="M 2.21875 -2.875 L 2.796875 -2.875 L 2.796875 0 L 2.265625 0 L 0.90625 -1.984375 L 0.90625 0 L 0.328125 0 L 0.328125 -2.875 L 0.90625 -2.875 L 2.21875 -0.96875 Z M 2.21875 -2.875 "/></g></g></g><g fill="#000000" fill-opacity="1"><g transform="translate(21.657186, 11.358796)"><g><path d="M 1.5 -2.921875 C 1.71875 -2.921875 1.910156 -2.875 2.078125 -2.78125 C 2.242188 -2.695312 2.378906 -2.578125 2.484375 -2.421875 C 2.585938 -2.273438 2.648438 -2.109375 2.671875 -1.921875 L 2.0625 -1.921875 C 2.039062 -2.023438 2.003906 -2.113281 1.953125 -2.1875 C 1.910156 -2.269531 1.847656 -2.332031 1.765625 -2.375 C 1.679688 -2.414062 1.585938 -2.4375 1.484375 -2.4375 C 1.347656 -2.4375 1.226562 -2.40625 1.125 -2.34375 C 1.03125 -2.28125 0.957031 -2.175781 0.90625 -2.03125 C 0.851562 -1.882812 0.828125 -1.691406 0.828125 -1.453125 C 0.828125 -1.097656 0.882812 -0.835938 1 -0.671875 C 1.113281 -0.515625 1.273438 -0.4375 1.484375 -0.4375 C 1.585938 -0.4375 1.679688 -0.460938 1.765625 -0.515625 C 1.847656 -0.566406 1.910156 -0.632812 1.953125 -0.71875 C 2.003906 -0.800781 2.039062 -0.894531 2.0625 -1 L 2.671875 -1 C 2.648438 -0.863281 2.613281 -0.734375 2.5625 -0.609375 C 2.519531 -0.484375 2.453125 -0.367188 2.359375 -0.265625 C 2.265625 -0.171875 2.144531 -0.09375 2 -0.03125 C 1.863281 0.0195312 1.695312 0.046875 1.5 0.046875 C 1.226562 0.046875 0.992188 -0.015625 0.796875 -0.140625 C 0.609375 -0.265625 0.457031 -0.441406 0.34375 -0.671875 C 0.238281 -0.898438 0.1875 -1.164062 0.1875 -1.46875 C 0.1875 -1.769531 0.238281 -2.023438 0.34375 -2.234375 C 0.445312 -2.453125 0.597656 -2.617188 0.796875 -2.734375 C 0.992188 -2.859375 1.226562 -2.921875 1.5 -2.921875 Z M 1.5 -2.921875 "/></g></g></g><g fill="#000000" fill-opacity="1"><g transform="translate(24.463088, 11.358796)"><g><path d="M 0.328125 0 L 0.328125 -2.875 L 2.296875 -2.875 L 2.296875 -2.390625 L 0.90625 -2.390625 L 0.90625 -1.6875 L 2.109375 -1.6875 L 2.109375 -1.21875 L 0.90625 -1.21875 L 0.90625 -0.5 L 2.328125 -0.5 L 2.328125 0 Z M 0.328125 0 "/></g></g></g><g fill="#000000" fill-opacity="1"><g transform="translate(14.542867, 16.595124)"><g><path d="M 0.28125 0 L 0.28125 -0.546875 C 0.28125 -0.722656 0.3125 -0.878906 0.375 -1.015625 C 0.445312 -1.148438 0.539062 -1.265625 0.65625 -1.359375 C 0.769531 -1.460938 0.890625 -1.550781 1.015625 -1.625 C 1.148438 -1.695312 1.285156 -1.765625 1.421875 -1.828125 C 1.554688 -1.898438 1.679688 -1.96875 1.796875 -2.03125 C 1.910156 -2.101562 2 -2.179688 2.0625 -2.265625 C 2.132812 -2.347656 2.171875 -2.445312 2.171875 -2.5625 C 2.171875 -2.707031 2.117188 -2.820312 2.015625 -2.90625 C 1.910156 -3 1.773438 -3.046875 1.609375 -3.046875 C 1.421875 -3.046875 1.265625 -2.992188 1.140625 -2.890625 C 1.015625 -2.785156 0.9375 -2.628906 0.90625 -2.421875 L 0.21875 -2.421875 C 0.21875 -2.648438 0.269531 -2.859375 0.375 -3.046875 C 0.476562 -3.234375 0.632812 -3.378906 0.84375 -3.484375 C 1.050781 -3.597656 1.3125 -3.65625 1.625 -3.65625 C 1.894531 -3.65625 2.125 -3.609375 2.3125 -3.515625 C 2.507812 -3.421875 2.660156 -3.289062 2.765625 -3.125 C 2.878906 -2.96875 2.9375 -2.78125 2.9375 -2.5625 C 2.9375 -2.382812 2.898438 -2.226562 2.828125 -2.09375 C 2.765625 -1.96875 2.675781 -1.859375 2.5625 -1.765625 C 2.457031 -1.671875 2.335938 -1.585938 2.203125 -1.515625 C 2.078125 -1.441406 1.945312 -1.375 1.8125 -1.3125 C 1.6875 -1.257812 1.566406 -1.203125 1.453125 -1.140625 C 1.347656 -1.078125 1.257812 -1.003906 1.1875 -0.921875 C 1.125 -0.847656 1.09375 -0.753906 1.09375 -0.640625 L 1.09375 -0.609375 L 2.921875 -0.609375 L 2.921875 0 Z M 0.28125 0 "/></g></g></g><g fill="#000000" fill-opacity="1"><g transform="translate(17.634796, 16.595124)"><g><path d="M 1.609375 -3.65625 C 2.035156 -3.65625 2.375 -3.492188 2.625 -3.171875 C 2.875 -2.847656 3 -2.390625 3 -1.796875 C 3 -1.203125 2.875 -0.742188 2.625 -0.421875 C 2.382812 -0.0976562 2.046875 0.0625 1.609375 0.0625 C 1.171875 0.0625 0.828125 -0.09375 0.578125 -0.40625 C 0.335938 -0.726562 0.21875 -1.191406 0.21875 -1.796875 C 0.21875 -2.191406 0.273438 -2.523438 0.390625 -2.796875 C 0.503906 -3.078125 0.664062 -3.289062 0.875 -3.4375 C 1.082031 -3.582031 1.328125 -3.65625 1.609375 -3.65625 Z M 1.609375 -0.546875 C 1.828125 -0.546875 1.984375 -0.640625 2.078125 -0.828125 C 2.179688 -1.015625 2.234375 -1.335938 2.234375 -1.796875 C 2.234375 -2.253906 2.179688 -2.582031 2.078125 -2.78125 C 1.972656 -2.976562 1.816406 -3.078125 1.609375 -3.078125 C 1.390625 -3.078125 1.226562 -2.976562 1.125 -2.78125 C 1.03125 -2.582031 0.984375 -2.253906 0.984375 -1.796875 C 0.984375 -1.347656 1.03125 -1.023438 1.125 -0.828125 C 1.226562 -0.640625 1.390625 -0.546875 1.609375 -0.546875 Z M 1.609375 -0.546875 "/></g></g></g><g fill="#000000" fill-opacity="1"><g transform="translate(20.774025, 16.595124)"><g><path d="M 0.28125 0 L 0.28125 -0.546875 C 0.28125 -0.722656 0.3125 -0.878906 0.375 -1.015625 C 0.445312 -1.148438 0.539062 -1.265625 0.65625 -1.359375 C 0.769531 -1.460938 0.890625 -1.550781 1.015625 -1.625 C 1.148438 -1.695312 1.285156 -1.765625 1.421875 -1.828125 C 1.554688 -1.898438 1.679688 -1.96875 1.796875 -2.03125 C 1.910156 -2.101562 2 -2.179688 2.0625 -2.265625 C 2.132812 -2.347656 2.171875 -2.445312 2.171875 -2.5625 C 2.171875 -2.707031 2.117188 -2.820312 2.015625 -2.90625 C 1.910156 -3 1.773438 -3.046875 1.609375 -3.046875 C 1.421875 -3.046875 1.265625 -2.992188 1.140625 -2.890625 C 1.015625 -2.785156 0.9375 -2.628906 0.90625 -2.421875 L 0.21875 -2.421875 C 0.21875 -2.648438 0.269531 -2.859375 0.375 -3.046875 C 0.476562 -3.234375 0.632812 -3.378906 0.84375 -3.484375 C 1.050781 -3.597656 1.3125 -3.65625 1.625 -3.65625 C 1.894531 -3.65625 2.125 -3.609375 2.3125 -3.515625 C 2.507812 -3.421875 2.660156 -3.289062 2.765625 -3.125 C 2.878906 -2.96875 2.9375 -2.78125 2.9375 -2.5625 C 2.9375 -2.382812 2.898438 -2.226562 2.828125 -2.09375 C 2.765625 -1.96875 2.675781 -1.859375 2.5625 -1.765625 C 2.457031 -1.671875 2.335938 -1.585938 2.203125 -1.515625 C 2.078125 -1.441406 1.945312 -1.375 1.8125 -1.3125 C 1.6875 -1.257812 1.566406 -1.203125 1.453125 -1.140625 C 1.347656 -1.078125 1.257812 -1.003906 1.1875 -0.921875 C 1.125 -0.847656 1.09375 -0.753906 1.09375 -0.640625 L 1.09375 -0.609375 L 2.921875 -0.609375 L 2.921875 0 Z M 0.28125 0 "/></g></g></g><g fill="#000000" fill-opacity="1"><g transform="translate(23.865954, 16.595124)"><g><path d="M 0.234375 -2.5 C 0.234375 -2.757812 0.296875 -2.972656 0.421875 -3.140625 C 0.546875 -3.304688 0.710938 -3.429688 0.921875 -3.515625 C 1.128906 -3.609375 1.359375 -3.65625 1.609375 -3.65625 C 1.878906 -3.65625 2.117188 -3.617188 2.328125 -3.546875 C 2.535156 -3.472656 2.703125 -3.363281 2.828125 -3.21875 C 2.953125 -3.082031 3.015625 -2.90625 3.015625 -2.6875 C 3.015625 -2.507812 2.960938 -2.351562 2.859375 -2.21875 C 2.753906 -2.082031 2.585938 -1.972656 2.359375 -1.890625 C 2.484375 -1.859375 2.601562 -1.800781 2.71875 -1.71875 C 2.832031 -1.644531 2.921875 -1.550781 2.984375 -1.4375 C 3.054688 -1.320312 3.09375 -1.179688 3.09375 -1.015625 C 3.09375 -0.835938 3.050781 -0.679688 2.96875 -0.546875 C 2.894531 -0.421875 2.789062 -0.3125 2.65625 -0.21875 C 2.519531 -0.125 2.359375 -0.0507812 2.171875 0 C 1.992188 0.0390625 1.800781 0.0625 1.59375 0.0625 C 1.300781 0.0507812 1.050781 0 0.84375 -0.09375 C 0.644531 -0.1875 0.488281 -0.316406 0.375 -0.484375 C 0.269531 -0.660156 0.21875 -0.867188 0.21875 -1.109375 L 0.921875 -1.109375 C 0.953125 -0.910156 1.03125 -0.765625 1.15625 -0.671875 C 1.28125 -0.578125 1.429688 -0.53125 1.609375 -0.53125 C 1.753906 -0.53125 1.878906 -0.550781 1.984375 -0.59375 C 2.085938 -0.632812 2.164062 -0.691406 2.21875 -0.765625 C 2.28125 -0.847656 2.3125 -0.941406 2.3125 -1.046875 C 2.3125 -1.148438 2.28125 -1.238281 2.21875 -1.3125 C 2.164062 -1.382812 2.085938 -1.441406 1.984375 -1.484375 C 1.878906 -1.523438 1.757812 -1.550781 1.625 -1.5625 L 1.28125 -1.5625 L 1.28125 -2.140625 L 1.59375 -2.15625 C 1.71875 -2.164062 1.828125 -2.191406 1.921875 -2.234375 C 2.023438 -2.273438 2.101562 -2.332031 2.15625 -2.40625 C 2.207031 -2.476562 2.234375 -2.5625 2.234375 -2.65625 C 2.234375 -2.738281 2.207031 -2.8125 2.15625 -2.875 C 2.101562 -2.945312 2.023438 -3 1.921875 -3.03125 C 1.828125 -3.070312 1.71875 -3.09375 1.59375 -3.09375 C 1.476562 -3.09375 1.375 -3.070312 1.28125 -3.03125 C 1.1875 -2.988281 1.109375 -2.925781 1.046875 -2.84375 C 0.984375 -2.757812 0.945312 -2.644531 0.9375 -2.5 Z M 0.234375 -2.5 "/></g></g></g></g></g></g></g></svg>