<svg xmlns="http://www.w3.org/2000/svg" xmlns:xlink="http://www.w3.org/1999/xlink" width="500" zoomAndPan="magnify" viewBox="0 0 375 374.999991" height="500" preserveAspectRatio="xMidYMid meet" version="1.0"><defs><clipPath id="2117d20cf2"><path d="M 92.207031 56.476562 L 270.707031 56.476562 L 270.707031 318 L 92.207031 318 Z M 92.207031 56.476562 " clip-rule="nonzero"/></clipPath></defs><g clip-path="url(#2117d20cf2)"><path fill="#000000" d="M 219.675781 110.40625 C 200.382812 99.585938 180.777344 88.449219 161.851562 77.257812 L 144.597656 67.117188 L 107.789062 88.394531 L 134.140625 103.609375 L 186.582031 134.039062 L 186.894531 134.039062 L 218.683594 152.285156 L 228.511719 146.902344 L 228.824219 146.585938 L 255.542969 131.371094 Z M 267.359375 189.511719 L 228.144531 212.152344 L 221.035156 216.542969 L 220.722656 216.542969 L 213.609375 220.621094 L 201.429688 227.730469 L 201.117188 228.046875 L 196.359375 230.765625 C 196.359375 258.160156 196.359375 285.507812 196.359375 313.269531 C 196.359375 313.949219 196.042969 314.941406 195.679688 315.621094 C 194.320312 317.972656 191.285156 318.652344 188.933594 317.292969 L 142.609375 290.578125 C 140.9375 289.898438 139.890625 288.226562 139.890625 286.1875 C 139.890625 276.722656 139.890625 267.257812 139.890625 257.796875 L 95.605469 232.070312 C 93.253906 230.710938 92.207031 227.679688 93.566406 225.328125 C 94.246094 224.648438 94.925781 223.96875 95.605469 223.289062 L 115.210938 212.152344 L 139.890625 197.929688 L 139.890625 146.902344 C 139.890625 145.90625 139.890625 145.226562 140.570312 144.183594 C 141.929688 141.828125 144.648438 141.148438 147 142.507812 L 191.601562 168.179688 L 208.851562 158.039062 L 182.1875 142.824219 L 181.875 142.507812 L 129.121094 112.082031 L 95.605469 92.789062 C 94.925781 92.472656 94.246094 91.792969 93.566406 90.75 C 92.207031 88.710938 93.253906 85.675781 95.605469 84.316406 L 141.929688 57.339844 C 143.601562 56.34375 145.328125 56.34375 147 57.339844 L 166.921875 68.839844 L 181.457031 77.3125 L 267.671875 126.980469 L 267.988281 126.980469 L 267.988281 127.292969 L 268.613281 127.292969 L 268.613281 127.609375 L 268.925781 127.609375 L 268.925781 127.921875 L 269.242188 127.921875 L 269.242188 128.550781 L 269.554688 128.550781 L 269.554688 129.175781 L 269.867188 129.175781 L 269.867188 130.117188 L 270.183594 130.117188 L 270.183594 184.808594 C 270.390625 187.109375 269.03125 188.832031 267.359375 189.511719 Z M 223.386719 203.683594 L 260.25 182.402344 L 260.25 139.789062 L 233.53125 155.003906 L 233.53125 155.320312 L 186.582031 182.402344 L 181.195312 185.433594 L 180.882812 185.75 L 178.164062 187.421875 L 147.679688 205.042969 C 147.367188 205.042969 147 205.042969 146.6875 205.355469 L 120.335938 220.570312 L 107.839844 227.679688 L 144.699219 248.960938 L 188.984375 223.601562 L 189.300781 223.601562 L 196.042969 219.523438 L 196.359375 219.210938 L 208.851562 212.097656 L 215.964844 208.019531 L 216.277344 207.707031 Z M 186.582031 236.464844 L 164.933594 248.644531 L 149.71875 257.796875 C 149.71875 266.265625 149.71875 274.683594 149.71875 283.152344 L 186.582031 304.433594 C 186.582031 281.792969 186.582031 259.15625 186.582031 236.464844 Z M 181.824219 173.933594 L 149.71875 155.371094 L 149.71875 192.230469 L 173.039062 178.691406 L 175.757812 177.015625 L 176.070312 177.015625 Z M 181.824219 173.933594 " fill-opacity="1" fill-rule="nonzero"/></g></svg>